<svg version="1.1" id="Layer_1" xmlns="http://www.w3.org/2000/svg" xmlns:xlink="http://www.w3.org/1999/xlink" x="0px" y="0px"
	 width="100%" viewBox="0 0 500 500" enable-background="new 0 0 500 500" xml:space="preserve">
<path fill="#292928" opacity="1.000000" stroke="none" 
	d="
M0.999996,402.000000 
	C1.000000,268.362091 1.000000,134.724213 1.000000,1.043154 
	C167.602005,1.043154 334.204041,1.043154 500.903015,1.043154 
	C500.903015,167.566101 500.903015,334.132294 500.903015,500.849243 
	C334.333435,500.849243 167.666733,500.849243 1.000000,500.849243 
	C1.000000,468.916199 1.000000,436.923096 1.386835,404.264343 
	C10.446790,405.193176 19.100426,406.913147 27.811024,408.266479 
	C29.374815,408.509430 31.738796,407.740051 32.765011,406.580872 
	C36.955799,401.847107 40.485531,396.509827 44.828480,391.935699 
	C47.551304,389.067932 50.975861,386.338013 54.620186,384.957397 
	C82.922661,374.235382 111.528099,364.293915 139.667130,353.168396 
	C151.836609,348.356842 164.015060,346.854858 176.735214,347.672363 
	C178.363235,347.777008 180.281555,349.048798 181.379333,350.356018 
	C182.934952,352.208466 183.852951,354.596344 185.166489,356.978516 
	C183.676926,358.018921 182.368484,358.993469 181.001785,359.878021 
	C167.305359,368.742737 153.378494,377.274170 139.979492,386.567017 
	C132.033096,392.078186 124.080643,395.977386 114.144218,394.552155 
	C112.810272,394.360840 110.539062,395.113251 109.966141,396.136505 
	C106.823135,401.750000 104.074165,407.584106 101.080811,413.560272 
	C107.110085,413.560272 112.581512,413.809692 118.005653,413.412903 
	C119.699387,413.289001 122.262604,411.743103 122.730438,410.298462 
	C126.131905,399.795013 133.364777,393.071777 142.822815,388.056946 
	C147.511414,385.570953 151.799652,382.331451 156.277145,379.445465 
	C166.449142,372.889130 176.626175,366.340607 187.021957,359.646729 
	C188.990524,362.416595 190.693680,364.812988 192.514984,367.375641 
	C190.865768,368.790497 189.501144,369.999115 188.097076,371.160065 
	C168.837814,387.084412 149.337082,402.728577 130.417999,419.047119 
	C122.058266,426.257812 113.626175,431.837341 102.101784,431.087799 
	C101.032928,431.018250 99.217499,432.216370 98.852036,433.225464 
	C96.723824,439.101868 94.925385,445.097717 92.826393,451.642883 
	C97.640945,451.178864 101.788651,450.219818 105.845207,450.514679 
	C112.498795,450.998352 114.854698,447.327454 115.909653,441.787476 
	C117.179451,435.119263 120.589287,430.084473 126.218025,426.062561 
	C132.573669,421.521240 138.366913,416.193573 144.412079,411.216797 
	C161.104385,397.474701 177.800522,383.737213 194.658859,369.863159 
	C196.808182,372.202118 198.765625,374.332275 200.918945,376.675598 
	C198.429688,378.633392 196.393539,380.337524 194.254074,381.900116 
	C183.897141,389.464355 173.746735,397.344482 163.062851,404.417358 
	C154.648712,409.987640 148.233444,416.996216 143.103317,425.568939 
	C138.662567,432.989655 134.018478,440.350861 128.783752,447.219757 
	C120.904518,457.558746 112.734795,467.826965 97.878777,468.199463 
	C96.497993,468.234070 94.279411,469.720032 93.950966,470.937164 
	C92.373024,476.784698 91.310997,482.771423 89.923859,489.385437 
	C95.227959,488.363892 99.725082,487.080292 104.294304,486.725800 
	C109.736847,486.303467 111.327759,483.261108 112.057030,478.480530 
	C112.697990,474.278870 113.036026,469.195740 115.562851,466.287262 
	C121.189384,459.810944 127.696480,453.908020 134.590485,448.772552 
	C143.383957,442.222076 153.003891,436.792023 162.073441,430.594910 
	C165.016296,428.584045 167.775604,425.994141 169.886047,423.129303 
	C178.972565,410.794586 187.752670,398.234650 196.728561,385.817596 
	C198.538300,383.314026 200.714233,381.075134 202.853500,378.558746 
	C204.288483,379.830658 205.247360,380.725922 206.255432,381.561890 
	C207.347839,382.467773 208.486069,383.318390 209.710083,384.275879 
	C211.053741,382.773712 212.131683,381.568604 213.458527,380.085236 
	C187.742615,357.463379 173.674545,329.390228 173.007736,295.158020 
	C172.335999,260.672394 185.154297,231.719864 210.536148,208.632889 
	C253.900589,169.189209 326.556976,167.694916 372.743713,219.929626 
	C374.079987,218.471237 375.402374,217.028000 376.873260,215.422714 
	C375.343842,213.581192 373.773010,211.689835 371.913849,209.451279 
	C374.966492,206.916916 377.764771,204.342026 380.814392,202.110626 
	C388.877594,196.210709 396.819214,190.097580 405.235565,184.738953 
	C416.261871,177.718613 425.283844,169.091553 431.578766,157.508926 
	C434.827179,151.531921 438.689056,145.836426 442.739532,140.358154 
	C450.985474,129.205475 459.429596,118.122414 475.212646,117.636581 
	C475.862122,117.616592 476.626251,117.489540 477.120483,117.121597 
	C477.942230,116.509865 479.034668,115.765785 479.236359,114.897079 
	C480.611511,108.974648 481.783783,103.005089 483.156281,96.402306 
	C478.240448,97.350533 474.073730,98.526237 469.838348,98.879921 
	C464.160217,99.354073 461.538422,101.874199 460.863434,107.677521 
	C460.364929,111.963501 459.477356,117.210762 456.719391,120.031319 
	C449.560822,127.352310 441.537262,133.916534 433.360474,140.126465 
	C425.950195,145.754318 417.812164,150.414841 410.145691,155.719635 
	C407.747498,157.379059 405.493927,159.491013 403.763519,161.831528 
	C394.358582,174.552368 385.152588,187.420151 375.841339,200.210556 
	C374.006775,202.730545 372.010773,205.132996 369.888855,207.845810 
	C367.310425,205.469833 365.190521,203.516357 362.984619,201.483643 
	C380.562714,180.175705 398.117462,159.448318 414.985809,138.176620 
	C421.730438,129.671280 428.629639,122.450859 440.078125,121.513420 
	C440.401642,121.486923 440.798676,121.410683 441.016235,121.204453 
	C441.881317,120.384560 443.303589,119.578178 443.417877,118.633545 
	C444.168427,112.427704 444.632172,106.187164 445.251617,99.263855 
	C440.643372,100.696609 436.845001,101.846878 433.066315,103.058624 
	C424.599579,105.773727 424.435425,105.779297 424.060822,114.920555 
	C423.826691,120.634460 422.143280,125.284752 418.254150,129.755402 
	C407.870544,141.691513 398.042816,154.110825 387.976288,166.323318 
	C378.886108,177.351349 369.772247,188.359848 360.592346,199.469543 
	C357.873016,197.468491 355.485870,195.711853 352.902527,193.810852 
	C362.404602,179.095444 372.156738,164.815125 381.004089,149.994690 
	C386.654053,140.530319 392.965393,132.599182 404.198364,129.818390 
	C405.316711,129.541534 406.887909,127.988342 406.929138,126.973862 
	C407.182526,120.740524 407.056152,114.491753 407.056152,107.715385 
	C402.353973,109.764183 398.089539,111.993362 393.580627,113.482422 
	C389.075562,114.970207 387.516937,117.478195 387.843750,122.212921 
	C388.146027,126.591316 388.839539,131.953171 386.790771,135.316376 
	C375.116974,154.479797 362.673920,173.174606 350.157532,192.546906 
	C346.903229,190.178513 341.482452,188.150772 341.329712,185.783218 
	C340.736786,176.591141 339.835297,166.635345 342.640350,158.151367 
	C351.874023,130.223816 363.353760,103.039070 372.594330,75.113556 
	C377.319061,60.835266 384.464325,49.441750 397.253784,41.709229 
	C401.232605,39.303612 402.272705,36.439964 401.084351,31.824484 
	C399.078827,24.035370 397.828400,16.051838 396.136627,7.526013 
	C388.260376,13.779733 381.020569,19.380205 374.010803,25.255138 
	C372.973236,26.124716 372.445374,28.378803 372.668060,29.842258 
	C373.668762,36.418819 375.275482,42.908218 376.145172,49.497482 
	C376.560272,52.642250 376.546326,56.202271 375.489594,59.127274 
	C364.755402,88.839767 353.590546,118.397331 342.955750,148.144669 
	C339.812836,156.935852 335.353973,164.467117 329.089905,171.413940 
	C324.379272,176.638031 320.183136,180.435699 312.716034,176.640778 
	C316.143982,159.009125 320.207611,141.833969 323.276489,124.482887 
	C325.149536,113.892952 328.339478,104.742867 338.188171,99.036987 
	C339.174713,98.465431 340.059021,96.070580 339.661896,95.028183 
	C337.304840,88.841164 334.556030,82.803391 331.727509,76.223816 
	C328.587799,79.219391 326.124756,82.257744 323.029358,84.369080 
	C317.758179,87.964462 317.339783,91.988312 319.903076,97.474983 
	C321.691132,101.302422 324.061035,105.951111 323.334747,109.680618 
	C319.013214,131.872604 313.865417,153.903687 308.611603,175.928391 
	C305.628693,175.528564 303.029297,175.189163 300.283691,174.450119 
	C300.124542,173.053818 300.017426,172.048080 300.112305,171.061813 
	C302.568634,145.533096 305.294403,120.026939 307.407867,94.470116 
	C308.368927,82.848602 309.302216,71.609756 319.505219,63.753227 
	C320.143372,63.261837 320.530914,61.519142 320.166199,60.797974 
	C317.294556,55.119637 314.211334,49.548313 310.996887,43.579441 
	C307.740479,47.303635 305.380432,50.612671 302.419006,53.245171 
	C298.083405,57.099224 297.917419,60.697403 300.828827,65.639656 
	C303.446930,70.084000 306.710632,74.504662 305.940460,80.392860 
	C304.882629,88.480392 304.238678,96.623062 303.467041,104.746826 
	C301.278229,127.790634 299.114685,150.836853 296.494720,173.943787 
	C293.445435,174.005463 290.842560,174.005463 287.814514,174.005463 
	C288.065460,170.427780 288.060638,167.601929 288.490723,164.843918 
	C290.925812,149.228928 293.612518,133.651428 295.863373,118.010757 
	C296.413391,114.188835 296.096313,110.098083 295.407623,106.269478 
	C293.494110,95.631508 290.773560,85.128830 289.116028,74.457123 
	C286.939789,60.445576 285.252594,46.284737 296.195709,34.489067 
	C296.530762,34.127884 296.919769,33.692471 296.996735,33.242607 
	C297.147217,32.362385 297.471436,31.199352 297.067291,30.585995 
	C293.657257,25.411118 290.098755,20.334093 286.275452,14.778031 
	C281.955383,20.952353 278.062592,26.515972 274.064240,32.230503 
	C276.644592,35.940289 278.930145,39.614853 281.612427,42.972473 
	C284.255096,46.280529 284.823334,49.855537 285.095001,53.996773 
	C286.119019,69.605827 281.263000,84.271309 278.573456,99.289780 
	C277.583527,104.817780 275.854858,110.511345 276.370789,115.948387 
	C277.405365,126.852074 279.791840,137.624893 281.546722,148.463638 
	C282.887451,156.744614 284.114990,165.043884 285.491577,173.975159 
	C281.604553,173.975159 278.807312,173.975159 275.983643,173.537445 
	C273.376465,146.768326 271.067566,120.406136 268.088196,94.119934 
	C266.802063,82.772614 266.244446,71.974457 274.012390,62.505928 
	C274.425476,62.002419 274.852692,61.356186 274.902985,60.745872 
	C274.976562,59.853249 275.040924,58.658802 274.544250,58.067841 
	C270.547119,53.312080 266.417328,48.667801 261.994019,43.607281 
	C259.723999,47.756020 257.815613,51.233276 255.917023,54.715839 
	C251.906403,62.072441 252.113007,61.920284 257.186310,68.688591 
	C259.881653,72.284424 263.209412,76.342171 263.705200,80.495422 
	C266.466003,103.621078 268.496948,126.835144 270.667816,150.029236 
	C271.440430,158.283539 271.905334,166.566635 272.076538,174.803650 
	C268.981079,175.156250 266.319763,175.541779 263.509521,175.521255 
	C259.813232,158.355637 256.808197,141.455887 252.526321,124.886131 
	C249.707336,113.977348 248.745621,103.830215 255.085815,93.960510 
	C255.351242,93.547325 255.663086,93.030098 255.629730,92.585617 
	C255.550964,91.535973 255.640854,90.138794 255.023331,89.518166 
	C250.629379,85.102074 246.074722,80.845879 241.174606,76.159485 
	C239.266541,80.394318 237.605438,84.000488 236.011002,87.635887 
	C232.237656,96.239281 232.089828,96.439690 239.472229,102.526726 
	C244.035233,106.289078 246.921936,110.456551 247.955597,116.475388 
	C249.839890,127.447426 252.608490,138.264496 254.814987,149.185257 
	C256.682312,158.427246 258.276642,167.724380 259.587433,176.990753 
	C256.933380,177.574997 254.708282,178.311722 252.423874,178.695999 
	C251.239471,178.895248 249.413498,178.950211 248.791016,178.253754 
	C242.416992,171.122009 234.285599,165.626053 230.255066,156.317108 
	C216.907867,125.490280 203.260345,94.792679 189.563736,64.118858 
	C187.657806,59.850460 186.765442,55.855286 187.710815,51.166470 
	C188.859421,45.469521 189.351044,39.630749 189.922791,33.833202 
	C190.072220,32.317940 190.028107,29.969620 189.115860,29.291687 
	C181.437271,23.585304 173.536087,18.178448 165.031067,12.210804 
	C163.794647,21.942680 162.841751,30.702152 161.484085,39.398434 
	C161.049759,42.180489 161.785370,43.658054 164.014191,45.131210 
	C169.430527,48.711189 174.868820,52.302601 179.943375,56.335907 
	C182.418442,58.303116 184.756470,60.973503 186.039398,63.827728 
	C198.788895,92.192528 211.067245,120.771156 224.020004,149.041367 
	C228.344635,158.480087 230.341995,167.980087 230.984985,178.272064 
	C231.445999,185.651199 229.394012,189.852097 222.210480,191.909149 
	C212.072876,176.174438 202.195374,160.161957 191.592621,144.645020 
	C185.338089,135.491608 180.020416,126.442825 181.938171,114.822075 
	C182.044083,114.180275 182.053391,113.419044 181.803101,112.846581 
	C181.441040,112.018486 180.969421,110.935379 180.251953,110.613724 
	C174.706650,108.127678 169.090836,105.798958 162.994308,103.207916 
	C162.354935,110.546028 161.780151,117.142967 161.200531,123.795372 
	C162.081665,124.281868 162.756622,124.896027 163.520309,125.040230 
	C176.621216,127.513962 183.806183,136.548157 190.208191,147.403229 
	C199.476822,163.118927 209.823608,178.198776 219.873932,193.803680 
	C217.093750,195.760284 214.591202,197.521500 212.008163,199.339371 
	C193.218506,176.558548 174.988525,154.022141 156.224533,131.939499 
	C149.560486,124.096832 144.027603,116.345497 144.779282,105.476067 
	C144.865051,104.235863 143.633011,102.120796 142.530594,101.713081 
	C136.672806,99.546616 130.661407,97.795441 124.176331,95.732903 
	C124.531967,100.209015 124.793846,103.994087 125.140701,107.771362 
	C125.918930,116.246040 125.829567,116.686935 134.001465,118.654762 
	C141.384399,120.432610 146.575912,124.348473 151.186554,130.280960 
	C160.893967,142.771423 171.241882,154.763718 181.311340,166.973328 
	C190.732544,178.396912 200.133606,189.837097 209.681808,201.437988 
	C207.369324,203.520233 205.307770,205.376526 202.935303,207.512787 
	C201.451492,205.736618 200.108978,204.299072 198.956039,202.722855 
	C189.320450,189.549637 179.833221,176.265610 170.028107,163.220291 
	C167.597198,159.986038 164.433365,157.142242 161.154633,154.734100 
	C148.572342,145.492706 135.615768,136.753159 123.172859,127.332352 
	C114.205727,120.543114 107.693687,111.924576 107.227394,99.935760 
	C107.186546,98.885750 106.198463,97.171844 105.356621,96.965668 
	C99.162086,95.448593 92.892776,94.236816 86.143448,92.823448 
	C87.413498,98.918869 88.696503,104.089508 89.506355,109.333221 
	C89.992645,112.481918 91.319366,113.730057 94.499794,114.280365 
	C99.523636,115.149628 105.720238,115.301910 109.113388,118.336952 
	C117.484802,125.824890 125.060928,134.376724 131.982040,143.260269 
	C138.404694,151.504044 143.465271,160.798828 149.346268,169.481369 
	C150.979416,171.892502 153.146164,174.115021 155.497574,175.837891 
	C167.721115,184.794022 180.113022,193.520020 192.375885,202.423141 
	C195.285446,204.535553 197.924438,207.020630 200.946899,209.551147 
	C198.727524,212.049438 196.903519,214.102676 195.020050,216.222839 
	C172.099564,197.293396 149.820023,178.485046 127.041237,160.302170 
	C119.060570,153.931702 112.477501,147.426102 111.730972,136.653152 
	C111.646431,135.433197 110.489662,133.430069 109.565010,133.263763 
	C103.145523,132.109055 96.655899,131.344177 89.479401,130.356613 
	C91.288651,136.216187 92.986374,141.069916 94.252647,146.033722 
	C95.153053,149.563309 96.787460,151.403412 100.667931,151.313843 
	C110.182564,151.094269 117.574158,155.414352 124.540787,161.703705 
	C134.546906,170.737030 145.269394,178.976105 155.673080,187.569962 
	C168.094742,197.830750 180.502701,208.108109 193.004471,218.450989 
	C191.020706,221.129669 189.252838,223.516830 187.313644,226.135315 
	C170.855743,215.458984 154.748627,204.502808 138.110107,194.423843 
	C129.366653,189.127396 122.181404,183.353409 120.280846,172.718643 
	C120.084343,171.619095 118.610809,170.053650 117.567139,169.913193 
	C111.182205,169.053925 104.750320,168.543518 97.557114,167.840973 
	C100.116608,173.515549 102.640099,178.374298 104.499466,183.475143 
	C105.884048,187.273514 108.145164,188.768600 111.946838,188.190720 
	C120.058647,186.957733 126.618690,190.067429 133.217300,194.546722 
	C148.778442,205.109924 164.725952,215.103745 180.509018,225.340469 
	C182.143112,226.400360 183.722290,227.544907 185.904114,229.047714 
	C183.562851,232.167191 181.496185,237.347397 179.321701,237.393082 
	C170.458328,237.579239 160.767090,238.188324 152.823166,235.022522 
	C126.419800,224.500244 100.906784,211.746994 74.519127,201.180923 
	C59.229275,195.058578 46.733822,186.833725 39.200424,171.940887 
	C38.754143,171.058640 38.195889,170.144073 37.454964,169.526001 
	C36.776058,168.959656 35.730972,168.382599 34.929741,168.481140 
	C25.477530,169.643539 16.040842,170.932175 5.902762,172.280319 
	C11.433199,180.206558 16.571558,187.357544 21.449455,194.681992 
	C23.073521,197.120636 24.701099,197.858414 27.613213,197.291946 
	C32.506184,196.340179 37.539543,196.122650 42.446548,195.227371 
	C48.514385,194.120316 53.941601,194.917923 59.716988,197.541031 
	C87.883118,210.333679 116.207069,222.784866 144.602112,235.063324 
	C151.913208,238.224747 157.999298,242.620590 163.922852,247.899628 
	C170.063644,253.372314 173.952072,258.599030 169.553131,266.915894 
	C152.744339,263.434998 136.397247,259.517181 119.887749,256.483002 
	C108.841858,254.452942 98.511757,251.902206 91.690468,241.934799 
	C91.076530,241.037704 89.033218,240.293427 88.030991,240.623550 
	C82.228020,242.535004 76.538269,244.790192 70.331596,247.107758 
	C73.279228,250.452637 75.744186,253.352966 78.319160,256.152069 
	C85.488319,263.945312 82.045494,263.049225 92.206047,259.330078 
	C94.391518,258.530090 96.504814,257.462250 98.748032,256.911652 
	C100.778625,256.413239 103.052010,255.922546 105.028519,256.335968 
	C126.354164,260.796570 147.642242,265.436798 168.937119,270.423920 
	C168.596741,273.479279 168.259827,276.138611 167.501129,278.944702 
	C165.582932,279.050385 164.078415,279.095459 162.591339,278.955414 
	C139.875168,276.816559 117.173805,274.507996 94.442146,272.550781 
	C80.876625,271.382812 66.988594,271.609528 57.115940,259.732544 
	C56.632534,259.150970 54.840576,259.028961 54.041245,259.439423 
	C48.523060,262.272949 43.106773,265.304962 37.193367,268.526154 
	C41.403427,271.919403 45.239384,274.611664 48.579834,277.819824 
	C51.702763,280.819031 54.300884,280.849792 58.174248,278.941589 
	C63.212791,276.459442 67.731483,272.836243 74.342369,273.613129 
	C93.524094,275.867279 112.803070,277.283386 132.032318,279.147644 
	C143.779022,280.286438 155.504410,281.645111 167.181168,283.364441 
	C166.977051,286.265015 166.831161,288.706116 166.681824,291.204865 
	C164.932800,291.204865 163.588730,291.367432 162.295502,291.179749 
	C149.458099,289.316437 136.556519,287.779541 123.819649,285.374329 
	C112.713104,283.277039 101.934174,282.722076 90.848450,285.716766 
	C81.885857,288.137878 72.662735,289.894806 63.441528,290.984833 
	C51.003094,292.455170 38.469837,293.034119 28.144663,283.582855 
	C27.382053,282.884796 25.475443,282.456055 24.696117,282.914429 
	C19.296833,286.090210 14.055399,289.534302 8.262569,293.209991 
	C11.996449,295.606415 15.351475,297.229492 18.047003,299.601929 
	C23.379076,304.294891 28.214809,304.564056 33.583790,299.657043 
	C38.355114,295.296234 44.214172,294.531250 50.663105,294.374512 
	C64.729973,294.032593 77.956810,298.153442 91.503014,300.630402 
	C97.183891,301.669128 102.994774,303.607574 108.588722,303.160797 
	C118.831398,302.342743 128.949371,300.009369 139.133347,298.396332 
	C148.231979,296.955170 157.349487,295.633331 166.680893,294.225281 
	C166.965790,297.863617 167.171967,300.496826 166.976868,303.303955 
	C141.079117,305.977448 115.551796,308.204987 90.099487,311.093414 
	C77.719025,312.498444 65.728790,313.581848 54.860600,305.754639 
	C54.179188,305.263916 52.483654,305.312012 51.804214,305.827240 
	C46.978355,309.486664 42.294430,313.333252 37.167114,317.439087 
	C42.504482,320.147247 47.208057,322.274200 51.637661,324.868896 
	C54.810703,326.727539 57.184540,326.757233 59.906212,324.045776 
	C65.975525,317.999237 73.046791,315.032684 82.010750,314.524536 
	C101.262566,313.433136 120.432381,310.942841 139.649994,309.180267 
	C149.067825,308.316528 158.517426,307.799194 167.937683,307.542419 
	C168.217346,310.411804 168.511963,312.863861 168.841995,315.610626 
	C149.935822,319.394501 131.132324,322.859924 112.484901,327.024323 
	C104.042847,328.909637 96.171814,329.160645 88.347855,325.127747 
	C87.273552,324.574036 85.181427,324.495361 84.373352,325.170135 
	C79.439384,329.290283 74.740173,333.691528 69.532768,338.386688 
	C74.612183,340.188202 78.831673,341.685059 83.051384,343.181274 
	C90.493210,345.819885 90.883102,346.091400 95.446815,339.543610 
	C99.485611,333.748932 104.610733,331.137329 111.407623,330.009003 
	C124.039032,327.912079 136.551880,325.101562 149.115311,322.594299 
	C155.883209,321.243622 162.653687,319.905701 169.994324,318.448608 
	C170.516327,322.581238 172.535919,327.581268 171.087387,328.973785 
	C164.221542,335.574463 158.277939,343.480347 148.757935,346.951263 
	C120.011902,357.431885 91.207703,367.772064 62.680222,378.822784 
	C52.542572,382.749817 42.880974,384.923798 32.363541,381.178802 
	C29.574608,380.185760 26.511003,379.589417 23.563410,379.549133 
	C21.619787,379.522552 19.013077,380.248840 17.813972,381.613770 
	C12.003244,388.228149 6.568175,395.172546 0.999996,402.000000 
M282.259766,334.842346 
	C283.319672,334.333984 284.967834,334.093689 285.341888,333.272797 
	C287.425690,328.699768 290.984497,327.592987 295.585388,328.111694 
	C298.403198,328.429321 301.257660,328.421600 305.014557,328.604797 
	C301.509674,324.610565 298.530304,321.492798 295.890411,318.110046 
	C294.101990,315.818420 292.332581,315.428162 289.516022,316.086792 
	C279.558868,318.415283 269.784546,313.911285 264.967743,305.146820 
	C260.069550,296.234253 261.465088,285.554230 268.461945,278.405792 
	C275.465942,271.250092 286.190857,269.489868 295.140930,274.093292 
	C301.811890,277.524445 305.357300,283.362183 307.236542,290.578918 
	C311.070404,284.287170 312.882629,283.706970 320.691772,285.954712 
	C326.198669,281.512329 321.129364,277.634552 320.063904,273.320404 
	C323.023865,270.538574 326.048615,267.695831 329.073334,264.853088 
	C328.572174,264.219971 328.070984,263.586884 327.569824,262.953796 
	C324.474915,265.413269 321.380005,267.872742 318.330933,270.295776 
	C307.482025,259.526794 307.482025,259.526794 293.407196,254.093124 
	C293.206482,251.483627 293.005341,248.869186 292.804230,246.254761 
	C292.214874,246.274658 291.625488,246.294571 291.036133,246.314484 
	C290.542023,248.788223 290.047882,251.261948 289.529846,253.855453 
	C278.018951,252.514969 268.023468,255.958649 259.250885,262.285736 
	C257.363556,260.880310 255.934937,259.816437 254.506302,258.752563 
	C254.116119,259.115906 253.725922,259.479248 253.335724,259.842560 
	C254.315628,261.509155 255.295532,263.175781 256.386658,265.031555 
	C248.398666,273.061829 244.517227,282.892700 243.903458,293.860931 
	C241.109604,294.156464 238.692535,294.412140 235.942108,294.703094 
	C236.534393,295.822968 236.639633,296.320374 236.848343,296.368469 
	C238.266434,296.695068 239.825653,296.669189 241.105652,297.261810 
	C242.387299,297.855194 244.225845,298.904388 244.396378,299.979614 
	C245.913422,309.545319 250.353058,317.527100 257.995728,325.124756 
	C255.478531,327.137573 253.213242,328.948975 250.947952,330.760345 
	C251.288132,331.238220 251.628311,331.716064 251.968491,332.193939 
	C253.463943,331.198181 255.184113,330.420166 256.405884,329.159241 
	C258.630035,326.863800 260.305206,327.140350 263.235016,328.494415 
	C269.037323,331.176147 275.338226,332.779114 282.259766,334.842346 
M318.152222,302.393127 
	C319.496826,304.149109 320.841400,305.905121 322.185974,307.661102 
	C321.698608,308.079193 321.211243,308.497284 320.723877,308.915375 
	C319.714844,308.047455 318.606812,307.270142 317.714691,306.295258 
	C314.567657,302.856354 311.480560,299.362152 308.398590,295.864380 
	C306.311340,293.495544 303.907837,292.001404 301.145050,294.517700 
	C298.423492,296.996429 299.599335,299.621765 301.658386,301.965240 
	C304.954620,305.716797 308.318848,309.409790 311.555206,313.211945 
	C312.203339,313.973450 312.407745,315.112701 312.816742,316.077789 
	C312.202515,316.543945 311.588257,317.010101 310.974030,317.476257 
	C309.366180,315.503571 307.816376,313.480042 306.139954,311.567505 
	C300.432983,305.056610 294.848083,298.422333 288.811066,292.230530 
	C287.550385,290.937531 284.028748,290.340820 282.477051,291.166779 
	C279.613281,292.691040 280.223083,295.606842 282.144531,298.006622 
	C282.976288,299.045441 283.871094,300.034454 284.751648,301.033417 
	C292.349274,309.652740 299.971313,318.250702 307.526154,326.907349 
	C308.594666,328.131683 309.340424,329.637665 310.968872,332.140228 
	C305.090485,331.746857 300.654968,331.480469 296.224762,331.144043 
	C292.586670,330.867798 288.476959,330.607727 288.214722,335.430969 
	C287.963196,340.056885 292.027008,340.012329 295.434235,340.187622 
	C301.084076,340.478241 306.796692,340.420135 312.361267,341.288330 
	C320.316071,342.529480 329.849152,338.947205 335.008820,348.925354 
	C343.645782,341.276215 351.706329,334.137573 358.425293,328.187073 
	C356.544678,322.295654 355.094879,317.578979 353.517487,312.905334 
	C352.950500,311.225464 352.400848,309.371429 351.288330,308.071991 
	C345.116608,300.863220 338.777466,293.797668 332.487915,286.689972 
	C330.430298,284.364655 328.029480,282.699341 325.250885,285.319702 
	C322.638794,287.783020 323.657562,290.367340 325.760956,292.778534 
	C327.614838,294.903687 329.319977,297.158539 331.090820,299.356140 
	C330.712769,299.761963 330.334717,300.167786 329.956665,300.573639 
	C329.015320,299.989960 327.892334,299.575165 327.164703,298.792755 
	C324.330780,295.745575 321.915771,292.222839 318.735565,289.622162 
	C317.279907,288.431763 314.410217,288.970551 312.181793,288.725098 
	C312.150970,290.970154 311.405792,293.550873 312.264313,295.378082 
	C313.421356,297.840668 315.813446,299.722961 318.152222,302.393127 
M350.002045,214.471832 
	C354.813751,218.994415 359.625488,223.517014 364.252991,227.866470 
	C365.705872,226.786209 367.031555,225.800537 368.294250,224.861679 
	C346.686340,196.961823 304.517303,178.663757 261.517517,188.836166 
	C218.748611,198.953979 185.495148,235.606628 180.200485,279.869629 
	C175.470474,319.412354 193.572220,356.807617 218.971558,374.876190 
	C220.034958,373.705536 221.115067,372.516479 222.206558,371.314880 
	C174.233398,332.685669 175.165466,261.289185 214.257004,221.835419 
	C250.239624,185.519440 309.006927,181.617844 350.002045,214.471832 
M265.155823,293.618225 
	C265.976990,308.223114 278.132751,317.307037 290.604156,312.231934 
	C286.923737,308.051453 283.229614,304.037781 279.748413,299.847198 
	C276.602051,296.059692 276.894073,291.616241 280.204285,288.749176 
	C283.380890,285.997833 287.483459,286.342438 290.873199,289.777130 
	C292.728668,291.657166 294.419556,293.699677 295.893311,295.343903 
	C298.558533,293.203003 301.018066,291.227325 304.342926,288.556549 
	C301.972260,285.457733 299.927185,281.521820 296.784180,278.904297 
	C285.725220,269.694275 267.024384,275.855194 265.155823,293.618225 
M336.207275,351.743164 
	C334.288971,353.477875 332.370636,355.212616 330.308899,357.077057 
	C333.714081,361.004303 336.702454,364.450836 339.864044,368.097137 
	C352.924896,356.545105 365.539764,345.387512 378.328735,334.075958 
	C374.859833,330.230103 371.804871,326.843140 368.634949,323.328766 
	C357.717346,332.890686 347.226807,342.078552 336.207275,351.743164 
M229.655411,238.158478 
	C228.923965,242.078247 230.169296,245.512970 233.911346,246.620697 
	C236.232681,247.307877 239.995850,246.894333 241.555481,245.376083 
	C243.284531,243.692932 244.303040,239.891190 243.651932,237.566193 
	C243.071838,235.494751 240.010574,233.354630 237.649170,232.723694 
	C234.067245,231.766663 231.381912,234.059433 229.655411,238.158478 
M233.648514,353.182800 
	C236.817703,347.221191 234.756363,341.227631 229.045807,341.204956 
	C226.442719,341.194611 223.021454,343.080750 221.419083,345.200897 
	C219.259430,348.058472 220.344452,351.561615 223.287750,354.013184 
	C226.638718,356.804413 229.927505,356.500641 233.648514,353.182800 
M342.735901,237.127991 
	C339.437134,241.846039 339.709381,246.266205 343.631836,248.723480 
	C346.966858,250.812744 350.330231,250.684814 353.129639,247.738220 
	C355.880646,244.842590 356.179291,241.421921 353.769043,238.259949 
	C350.938965,234.547256 347.312408,233.864288 342.735901,237.127991 
M210.395782,289.908386 
	C209.604446,291.839539 208.352280,293.744904 208.241882,295.714233 
	C208.195816,296.535950 210.977478,298.502045 211.776581,298.185974 
	C213.602493,297.463837 216.107468,295.819763 216.339676,294.253998 
	C216.829910,290.948364 214.621216,289.165283 210.395782,289.908386 
M295.641571,225.999420 
	C296.342804,224.167130 297.471313,222.353958 297.554504,220.494049 
	C297.592712,219.639282 295.202789,217.721375 294.568726,217.968124 
	C292.579773,218.742157 289.610291,220.104187 289.361755,221.621841 
	C288.771423,225.226639 291.231720,226.918137 295.641571,225.999420 
z"/>
<path fill="#ECCB58" opacity="1.000000" stroke="none" 
	d="
M0.999996,402.333313 
	C6.568175,395.172546 12.003244,388.228149 17.813972,381.613770 
	C19.013077,380.248840 21.619787,379.522552 23.563410,379.549133 
	C26.511003,379.589417 29.574608,380.185760 32.363541,381.178802 
	C42.880974,384.923798 52.542572,382.749817 62.680222,378.822784 
	C91.207703,367.772064 120.011902,357.431885 148.757935,346.951263 
	C158.277939,343.480347 164.221542,335.574463 171.087387,328.973785 
	C172.535919,327.581268 170.516327,322.581238 169.994324,318.448608 
	C162.653687,319.905701 155.883209,321.243622 149.115311,322.594299 
	C136.551880,325.101562 124.039032,327.912079 111.407623,330.009003 
	C104.610733,331.137329 99.485611,333.748932 95.446815,339.543610 
	C90.883102,346.091400 90.493210,345.819885 83.051384,343.181274 
	C78.831673,341.685059 74.612183,340.188202 69.532768,338.386688 
	C74.740173,333.691528 79.439384,329.290283 84.373352,325.170135 
	C85.181427,324.495361 87.273552,324.574036 88.347855,325.127747 
	C96.171814,329.160645 104.042847,328.909637 112.484901,327.024323 
	C131.132324,322.859924 149.935822,319.394501 168.841995,315.610626 
	C168.511963,312.863861 168.217346,310.411804 167.949371,307.200317 
	C167.776718,305.337280 167.577438,304.233673 167.378159,303.130035 
	C167.171967,300.496826 166.965790,297.863617 166.680893,294.225281 
	C157.349487,295.633331 148.231979,296.955170 139.133347,298.396332 
	C128.949371,300.009369 118.831398,302.342743 108.588722,303.160797 
	C102.994774,303.607574 97.183891,301.669128 91.503014,300.630402 
	C77.956810,298.153442 64.729973,294.032593 50.663105,294.374512 
	C44.214172,294.531250 38.355114,295.296234 33.583790,299.657043 
	C28.214809,304.564056 23.379076,304.294891 18.047003,299.601929 
	C15.351475,297.229492 11.996449,295.606415 8.262569,293.209991 
	C14.055399,289.534302 19.296833,286.090210 24.696117,282.914429 
	C25.475443,282.456055 27.382053,282.884796 28.144663,283.582855 
	C38.469837,293.034119 51.003094,292.455170 63.441528,290.984833 
	C72.662735,289.894806 81.885857,288.137878 90.848450,285.716766 
	C101.934174,282.722076 112.713104,283.277039 123.819649,285.374329 
	C136.556519,287.779541 149.458099,289.316437 162.295502,291.179749 
	C163.588730,291.367432 164.932800,291.204865 166.681824,291.204865 
	C166.831161,288.706116 166.977051,286.265015 167.333893,283.049194 
	C167.670853,281.115692 167.796875,279.956818 167.922913,278.797974 
	C168.259827,276.138611 168.596741,273.479279 169.128494,270.143799 
	C169.530792,268.596710 169.738266,267.725769 169.945724,266.854828 
	C173.952072,258.599030 170.063644,253.372314 163.922852,247.899628 
	C157.999298,242.620590 151.913208,238.224747 144.602112,235.063324 
	C116.207069,222.784866 87.883118,210.333679 59.716988,197.541031 
	C53.941601,194.917923 48.514385,194.120316 42.446548,195.227371 
	C37.539543,196.122650 32.506184,196.340179 27.613213,197.291946 
	C24.701099,197.858414 23.073521,197.120636 21.449455,194.681992 
	C16.571558,187.357544 11.433199,180.206558 5.902762,172.280319 
	C16.040842,170.932175 25.477530,169.643539 34.929741,168.481140 
	C35.730972,168.382599 36.776058,168.959656 37.454964,169.526001 
	C38.195889,170.144073 38.754143,171.058640 39.200424,171.940887 
	C46.733822,186.833725 59.229275,195.058578 74.519127,201.180923 
	C100.906784,211.746994 126.419800,224.500244 152.823166,235.022522 
	C160.767090,238.188324 170.458328,237.579239 179.321701,237.393082 
	C181.496185,237.347397 183.562851,232.167191 185.904114,229.047714 
	C183.722290,227.544907 182.143112,226.400360 180.509018,225.340469 
	C164.725952,215.103745 148.778442,205.109924 133.217300,194.546722 
	C126.618690,190.067429 120.058647,186.957733 111.946838,188.190720 
	C108.145164,188.768600 105.884048,187.273514 104.499466,183.475143 
	C102.640099,178.374298 100.116608,173.515549 97.557114,167.840973 
	C104.750320,168.543518 111.182205,169.053925 117.567139,169.913193 
	C118.610809,170.053650 120.084343,171.619095 120.280846,172.718643 
	C122.181404,183.353409 129.366653,189.127396 138.110107,194.423843 
	C154.748627,204.502808 170.855743,215.458984 187.313644,226.135315 
	C189.252838,223.516830 191.020706,221.129669 193.004471,218.450989 
	C180.502701,208.108109 168.094742,197.830750 155.673080,187.569962 
	C145.269394,178.976105 134.546906,170.737030 124.540787,161.703705 
	C117.574158,155.414352 110.182564,151.094269 100.667931,151.313843 
	C96.787460,151.403412 95.153053,149.563309 94.252647,146.033722 
	C92.986374,141.069916 91.288651,136.216187 89.479401,130.356613 
	C96.655899,131.344177 103.145523,132.109055 109.565010,133.263763 
	C110.489662,133.430069 111.646431,135.433197 111.730972,136.653152 
	C112.477501,147.426102 119.060570,153.931702 127.041237,160.302170 
	C149.820023,178.485046 172.099564,197.293396 195.020050,216.222839 
	C196.903519,214.102676 198.727524,212.049438 200.946899,209.551147 
	C197.924438,207.020630 195.285446,204.535553 192.375885,202.423141 
	C180.113022,193.520020 167.721115,184.794022 155.497574,175.837891 
	C153.146164,174.115021 150.979416,171.892502 149.346268,169.481369 
	C143.465271,160.798828 138.404694,151.504044 131.982040,143.260269 
	C125.060928,134.376724 117.484802,125.824890 109.113388,118.336952 
	C105.720238,115.301910 99.523636,115.149628 94.499794,114.280365 
	C91.319366,113.730057 89.992645,112.481918 89.506355,109.333221 
	C88.696503,104.089508 87.413498,98.918869 86.143448,92.823448 
	C92.892776,94.236816 99.162086,95.448593 105.356621,96.965668 
	C106.198463,97.171844 107.186546,98.885750 107.227394,99.935760 
	C107.693687,111.924576 114.205727,120.543114 123.172859,127.332352 
	C135.615768,136.753159 148.572342,145.492706 161.154633,154.734100 
	C164.433365,157.142242 167.597198,159.986038 170.028107,163.220291 
	C179.833221,176.265610 189.320450,189.549637 198.956039,202.722855 
	C200.108978,204.299072 201.451492,205.736618 202.935303,207.512787 
	C205.307770,205.376526 207.369324,203.520233 209.681808,201.437988 
	C200.133606,189.837097 190.732544,178.396912 181.311340,166.973328 
	C171.241882,154.763718 160.893967,142.771423 151.186554,130.280960 
	C146.575912,124.348473 141.384399,120.432610 134.001465,118.654762 
	C125.829567,116.686935 125.918930,116.246040 125.140701,107.771362 
	C124.793846,103.994087 124.531967,100.209015 124.176331,95.732903 
	C130.661407,97.795441 136.672806,99.546616 142.530594,101.713081 
	C143.633011,102.120796 144.865051,104.235863 144.779282,105.476067 
	C144.027603,116.345497 149.560486,124.096832 156.224533,131.939499 
	C174.988525,154.022141 193.218506,176.558548 212.008163,199.339371 
	C214.591202,197.521500 217.093750,195.760284 219.873932,193.803680 
	C209.823608,178.198776 199.476822,163.118927 190.208191,147.403229 
	C183.806183,136.548157 176.621216,127.513962 163.520309,125.040230 
	C162.756622,124.896027 162.081665,124.281868 161.200531,123.795372 
	C161.780151,117.142967 162.354935,110.546028 162.994308,103.207916 
	C169.090836,105.798958 174.706650,108.127678 180.251953,110.613724 
	C180.969421,110.935379 181.441040,112.018486 181.803101,112.846581 
	C182.053391,113.419044 182.044083,114.180275 181.938171,114.822075 
	C180.020416,126.442825 185.338089,135.491608 191.592621,144.645020 
	C202.195374,160.161957 212.072876,176.174438 222.210480,191.909149 
	C229.394012,189.852097 231.445999,185.651199 230.984985,178.272064 
	C230.341995,167.980087 228.344635,158.480087 224.020004,149.041367 
	C211.067245,120.771156 198.788895,92.192528 186.039398,63.827728 
	C184.756470,60.973503 182.418442,58.303116 179.943375,56.335907 
	C174.868820,52.302601 169.430527,48.711189 164.014191,45.131210 
	C161.785370,43.658054 161.049759,42.180489 161.484085,39.398434 
	C162.841751,30.702152 163.794647,21.942680 165.031067,12.210804 
	C173.536087,18.178448 181.437271,23.585304 189.115860,29.291687 
	C190.028107,29.969620 190.072220,32.317940 189.922791,33.833202 
	C189.351044,39.630749 188.859421,45.469521 187.710815,51.166470 
	C186.765442,55.855286 187.657806,59.850460 189.563736,64.118858 
	C203.260345,94.792679 216.907867,125.490280 230.255066,156.317108 
	C234.285599,165.626053 242.416992,171.122009 248.791016,178.253754 
	C249.413498,178.950211 251.239471,178.895248 252.423874,178.695999 
	C254.708282,178.311722 256.933380,177.574997 259.869751,176.984192 
	C261.590424,176.631744 262.624420,176.279541 263.658447,175.927307 
	C266.319763,175.541779 268.981079,175.156250 272.446594,174.811234 
	C274.170532,174.559555 275.090302,174.267349 276.010071,173.975159 
	C278.807312,173.975159 281.604553,173.975159 285.491577,173.975159 
	C284.114990,165.043884 282.887451,156.744614 281.546722,148.463638 
	C279.791840,137.624893 277.405365,126.852074 276.370789,115.948387 
	C275.854858,110.511345 277.583527,104.817780 278.573456,99.289780 
	C281.263000,84.271309 286.119019,69.605827 285.095001,53.996773 
	C284.823334,49.855537 284.255096,46.280529 281.612427,42.972473 
	C278.930145,39.614853 276.644592,35.940289 274.064240,32.230503 
	C278.062592,26.515972 281.955383,20.952353 286.275452,14.778031 
	C290.098755,20.334093 293.657257,25.411118 297.067291,30.585995 
	C297.471436,31.199352 297.147217,32.362385 296.996735,33.242607 
	C296.919769,33.692471 296.530762,34.127884 296.195709,34.489067 
	C285.252594,46.284737 286.939789,60.445576 289.116028,74.457123 
	C290.773560,85.128830 293.494110,95.631508 295.407623,106.269478 
	C296.096313,110.098083 296.413391,114.188835 295.863373,118.010757 
	C293.612518,133.651428 290.925812,149.228928 288.490723,164.843918 
	C288.060638,167.601929 288.065460,170.427780 287.814514,174.005463 
	C290.842560,174.005463 293.445435,174.005463 296.803436,174.147720 
	C298.515686,174.476562 299.472809,174.663147 300.429901,174.849747 
	C303.029297,175.189163 305.628693,175.528564 308.899994,176.116669 
	C310.691986,176.584595 311.812042,176.803833 312.932129,177.023071 
	C320.183136,180.435699 324.379272,176.638031 329.089905,171.413940 
	C335.353973,164.467117 339.812836,156.935852 342.955750,148.144669 
	C353.590546,118.397331 364.755402,88.839767 375.489594,59.127274 
	C376.546326,56.202271 376.560272,52.642250 376.145172,49.497482 
	C375.275482,42.908218 373.668762,36.418819 372.668060,29.842258 
	C372.445374,28.378803 372.973236,26.124716 374.010803,25.255138 
	C381.020569,19.380205 388.260376,13.779733 396.136627,7.526013 
	C397.828400,16.051838 399.078827,24.035370 401.084351,31.824484 
	C402.272705,36.439964 401.232605,39.303612 397.253784,41.709229 
	C384.464325,49.441750 377.319061,60.835266 372.594330,75.113556 
	C363.353760,103.039070 351.874023,130.223816 342.640350,158.151367 
	C339.835297,166.635345 340.736786,176.591141 341.329712,185.783218 
	C341.482452,188.150772 346.903229,190.178513 350.157532,192.546906 
	C362.673920,173.174606 375.116974,154.479797 386.790771,135.316376 
	C388.839539,131.953171 388.146027,126.591316 387.843750,122.212921 
	C387.516937,117.478195 389.075562,114.970207 393.580627,113.482422 
	C398.089539,111.993362 402.353973,109.764183 407.056152,107.715385 
	C407.056152,114.491753 407.182526,120.740524 406.929138,126.973862 
	C406.887909,127.988342 405.316711,129.541534 404.198364,129.818390 
	C392.965393,132.599182 386.654053,140.530319 381.004089,149.994690 
	C372.156738,164.815125 362.404602,179.095444 352.902527,193.810852 
	C355.485870,195.711853 357.873016,197.468491 360.592346,199.469543 
	C369.772247,188.359848 378.886108,177.351349 387.976288,166.323318 
	C398.042816,154.110825 407.870544,141.691513 418.254150,129.755402 
	C422.143280,125.284752 423.826691,120.634460 424.060822,114.920555 
	C424.435425,105.779297 424.599579,105.773727 433.066315,103.058624 
	C436.845001,101.846878 440.643372,100.696609 445.251617,99.263855 
	C444.632172,106.187164 444.168427,112.427704 443.417877,118.633545 
	C443.303589,119.578178 441.881317,120.384560 441.016235,121.204453 
	C440.798676,121.410683 440.401642,121.486923 440.078125,121.513420 
	C428.629639,122.450859 421.730438,129.671280 414.985809,138.176620 
	C398.117462,159.448318 380.562714,180.175705 362.984619,201.483643 
	C365.190521,203.516357 367.310425,205.469833 369.888855,207.845810 
	C372.010773,205.132996 374.006775,202.730545 375.841339,200.210556 
	C385.152588,187.420151 394.358582,174.552368 403.763519,161.831528 
	C405.493927,159.491013 407.747498,157.379059 410.145691,155.719635 
	C417.812164,150.414841 425.950195,145.754318 433.360474,140.126465 
	C441.537262,133.916534 449.560822,127.352310 456.719391,120.031319 
	C459.477356,117.210762 460.364929,111.963501 460.863434,107.677521 
	C461.538422,101.874199 464.160217,99.354073 469.838348,98.879921 
	C474.073730,98.526237 478.240448,97.350533 483.156281,96.402306 
	C481.783783,103.005089 480.611511,108.974648 479.236359,114.897079 
	C479.034668,115.765785 477.942230,116.509865 477.120483,117.121597 
	C476.626251,117.489540 475.862122,117.616592 475.212646,117.636581 
	C459.429596,118.122414 450.985474,129.205475 442.739532,140.358154 
	C438.689056,145.836426 434.827179,151.531921 431.578766,157.508926 
	C425.283844,169.091553 416.261871,177.718613 405.235565,184.738953 
	C396.819214,190.097580 388.877594,196.210709 380.814392,202.110626 
	C377.764771,204.342026 374.966492,206.916916 371.913849,209.451279 
	C373.773010,211.689835 375.343842,213.581192 376.873260,215.422714 
	C375.402374,217.028000 374.079987,218.471237 372.743713,219.929626 
	C326.556976,167.694916 253.900589,169.189209 210.536148,208.632889 
	C185.154297,231.719864 172.335999,260.672394 173.007736,295.158020 
	C173.674545,329.390228 187.742615,357.463379 213.458527,380.085236 
	C212.131683,381.568604 211.053741,382.773712 209.710083,384.275879 
	C208.486069,383.318390 207.347839,382.467773 206.255432,381.561890 
	C205.247360,380.725922 204.288483,379.830658 202.853500,378.558746 
	C200.714233,381.075134 198.538300,383.314026 196.728561,385.817596 
	C187.752670,398.234650 178.972565,410.794586 169.886047,423.129303 
	C167.775604,425.994141 165.016296,428.584045 162.073441,430.594910 
	C153.003891,436.792023 143.383957,442.222076 134.590485,448.772552 
	C127.696480,453.908020 121.189384,459.810944 115.562851,466.287262 
	C113.036026,469.195740 112.697990,474.278870 112.057030,478.480530 
	C111.327759,483.261108 109.736847,486.303467 104.294304,486.725800 
	C99.725082,487.080292 95.227959,488.363892 89.923859,489.385437 
	C91.310997,482.771423 92.373024,476.784698 93.950966,470.937164 
	C94.279411,469.720032 96.497993,468.234070 97.878777,468.199463 
	C112.734795,467.826965 120.904518,457.558746 128.783752,447.219757 
	C134.018478,440.350861 138.662567,432.989655 143.103317,425.568939 
	C148.233444,416.996216 154.648712,409.987640 163.062851,404.417358 
	C173.746735,397.344482 183.897141,389.464355 194.254074,381.900116 
	C196.393539,380.337524 198.429688,378.633392 200.918945,376.675598 
	C198.765625,374.332275 196.808182,372.202118 194.658859,369.863159 
	C177.800522,383.737213 161.104385,397.474701 144.412079,411.216797 
	C138.366913,416.193573 132.573669,421.521240 126.218025,426.062561 
	C120.589287,430.084473 117.179451,435.119263 115.909653,441.787476 
	C114.854698,447.327454 112.498795,450.998352 105.845207,450.514679 
	C101.788651,450.219818 97.640945,451.178864 92.826393,451.642883 
	C94.925385,445.097717 96.723824,439.101868 98.852036,433.225464 
	C99.217499,432.216370 101.032928,431.018250 102.101784,431.087799 
	C113.626175,431.837341 122.058266,426.257812 130.417999,419.047119 
	C149.337082,402.728577 168.837814,387.084412 188.097076,371.160065 
	C189.501144,369.999115 190.865768,368.790497 192.514984,367.375641 
	C190.693680,364.812988 188.990524,362.416595 187.021957,359.646729 
	C176.626175,366.340607 166.449142,372.889130 156.277145,379.445465 
	C151.799652,382.331451 147.511414,385.570953 142.822815,388.056946 
	C133.364777,393.071777 126.131905,399.795013 122.730438,410.298462 
	C122.262604,411.743103 119.699387,413.289001 118.005653,413.412903 
	C112.581512,413.809692 107.110085,413.560272 101.080811,413.560272 
	C104.074165,407.584106 106.823135,401.750000 109.966141,396.136505 
	C110.539062,395.113251 112.810272,394.360840 114.144218,394.552155 
	C124.080643,395.977386 132.033096,392.078186 139.979492,386.567017 
	C153.378494,377.274170 167.305359,368.742737 181.001785,359.878021 
	C182.368484,358.993469 183.676926,358.018921 185.166489,356.978516 
	C183.852951,354.596344 182.934952,352.208466 181.379333,350.356018 
	C180.281555,349.048798 178.363235,347.777008 176.735214,347.672363 
	C164.015060,346.854858 151.836609,348.356842 139.667130,353.168396 
	C111.528099,364.293915 82.922661,374.235382 54.620186,384.957397 
	C50.975861,386.338013 47.551304,389.067932 44.828480,391.935699 
	C40.485531,396.509827 36.955799,401.847107 32.765011,406.580872 
	C31.738796,407.740051 29.374815,408.509430 27.811024,408.266479 
	C19.100426,406.913147 10.446790,405.193176 1.386835,403.799316 
	C1.000000,403.555542 1.000000,403.111115 0.999996,402.333313 
M136.203079,142.426193 
	C136.370178,142.703094 136.583679,142.937790 136.900909,143.850937 
	C142.652847,152.972916 146.975067,163.576889 154.512299,170.848312 
	C164.318893,180.309052 176.678772,187.123169 188.054031,195.194321 
	C188.054031,195.194321 188.313202,195.146896 188.313202,195.146896 
	C188.313202,195.146896 188.141327,194.884033 188.082870,194.171799 
	C175.445908,172.741150 160.375641,153.730331 136.772858,142.538025 
	C136.540695,142.318787 136.279953,142.141556 135.941437,141.911499 
	C135.941437,141.911499 136.008163,141.988525 136.203079,142.426193 
M188.374725,390.272736 
	C181.210434,395.372833 174.019623,400.436218 166.891434,405.586273 
	C162.323975,408.886169 156.843231,411.543304 153.545181,415.847382 
	C147.012619,424.372620 141.708267,433.839050 135.781967,443.040283 
	C135.781967,443.040283 135.840973,443.308624 135.840973,443.308624 
	C135.840973,443.308624 136.120941,443.146454 136.810608,442.994507 
	C150.768509,434.555359 165.583267,427.295624 174.237442,412.230927 
	C178.659363,404.533508 184.041672,397.387787 189.097092,389.962128 
	C189.097092,389.962128 189.005493,390.008087 188.374725,390.272736 
M384.745392,194.940781 
	C393.571625,188.811874 402.305878,182.544998 411.246033,176.587036 
	C423.983246,168.098572 429.482391,154.320023 437.133789,141.964539 
	C437.133789,141.964539 436.992310,141.988968 436.321014,142.167725 
	C412.590393,153.543137 397.103851,173.095581 383.833191,195.050797 
	C383.833191,195.050797 383.860626,195.266556 383.860626,195.266556 
	C383.860626,195.266556 384.052216,195.066879 384.745392,194.940781 
M142.254135,294.869507 
	C144.374084,294.434448 146.494034,293.999390 148.613998,293.564331 
	C136.062454,290.498810 123.716476,287.911102 111.236565,286.565216 
	C98.400215,285.180908 86.474083,290.634277 74.015831,293.056854 
	C82.099129,295.587982 90.144150,297.381622 98.229027,298.972687 
	C101.774963,299.670502 105.503937,300.735046 108.973679,300.282532 
	C119.837440,298.865814 130.617355,296.806122 142.254135,294.869507 
M280.995911,102.484909 
	C280.683563,108.542847 279.992340,114.612518 280.179382,120.654999 
	C280.327393,125.435860 281.520050,130.188919 282.308868,134.944336 
	C283.485321,142.036621 284.714661,149.120117 285.921509,156.207352 
	C288.139191,147.602646 289.832001,139.127975 290.863647,130.573563 
	C291.905029,121.938446 294.789001,113.485901 292.143921,104.463776 
	C289.774567,96.382019 288.622162,87.943497 286.932831,79.662376 
	C286.522888,79.692497 286.112976,79.722610 285.703033,79.752731 
	C284.175537,87.050789 282.648041,94.348854 280.995911,102.484909 
M168.297562,18.813684 
	C167.073654,26.206306 165.825607,33.595196 164.681061,41.000084 
	C164.606033,41.485550 165.198563,42.268341 165.690277,42.617641 
	C171.437103,46.700016 177.224167,50.725750 184.125870,55.553593 
	C185.156082,47.228794 186.143524,40.242714 186.762802,33.224155 
	C186.860870,32.112545 185.546921,30.515091 184.462006,29.722004 
	C179.373627,26.002329 174.137161,22.485262 168.297562,18.813684 
M13.853552,402.717377 
	C17.437702,403.409698 21.001005,404.264404 24.614492,404.728180 
	C26.518246,404.972504 29.349274,405.315582 30.319818,404.272522 
	C35.196335,399.031769 39.597023,393.348297 45.046890,386.752808 
	C36.541721,385.141815 29.605772,383.794373 22.649395,382.562225 
	C21.950745,382.438477 20.840328,382.775940 20.407721,383.300629 
	C15.827553,388.855652 11.346139,394.492065 6.183410,400.920563 
	C9.315897,401.654602 11.180050,402.091431 13.853552,402.717377 
M34.676327,172.221405 
	C27.246885,172.895370 19.817444,173.569351 11.006433,174.368652 
	C15.948226,181.357269 19.799454,186.913727 23.808470,192.353897 
	C24.407085,193.166199 25.791500,193.950348 26.736507,193.868729 
	C33.892414,193.250839 41.029377,192.413666 49.430199,191.509491 
	C44.213379,184.437714 39.815563,178.476166 34.676327,172.221405 
M375.973633,29.893620 
	C377.169281,36.789227 378.364899,43.684837 379.783173,51.864315 
	C386.530151,46.491016 391.969360,42.199615 397.339203,37.823048 
	C397.904663,37.362164 398.458954,36.330978 398.346588,35.680416 
	C397.117035,28.561510 395.753784,21.465694 394.426849,14.363609 
	C393.845062,14.059242 393.263245,13.754874 392.681458,13.450507 
	C387.128754,18.659969 381.576080,23.869431 375.973633,29.893620 
M178.982925,118.672943 
	C178.759933,112.702446 173.650803,108.896461 165.905258,108.930893 
	C162.608368,120.760811 166.251129,125.970901 178.587952,126.268265 
	C178.718826,124.049667 178.851273,121.804489 178.982925,118.672943 
M291.214172,27.309402 
	C289.622162,25.114517 288.030151,22.919632 286.380127,20.644777 
	C277.013947,30.643133 277.156311,36.606979 286.735779,43.175735 
	C288.399017,40.741600 289.932526,38.199509 291.763672,35.893841 
	C293.990204,33.090355 293.959686,30.521740 291.214172,27.309402 
M433.695770,120.074516 
	C441.253204,118.113609 442.777863,114.831474 440.881348,104.606003 
	C427.504974,106.209908 425.777557,108.288887 427.692261,121.680344 
	C429.461517,121.201782 431.200256,120.731483 433.695770,120.074516 
M91.717705,104.807816 
	C93.016441,111.299072 98.257278,114.074532 106.431221,112.599838 
	C105.328613,99.538971 102.702972,96.988327 90.558182,97.776405 
	C90.887177,99.887497 91.209702,101.957092 91.717705,104.807816 
M467.789276,116.089470 
	C477.114960,114.293816 479.280884,111.162209 478.182251,101.062843 
	C467.155548,100.841240 464.056366,103.266769 463.129242,112.641174 
	C462.824493,115.722595 463.727844,117.172813 467.789276,116.089470 
M101.924568,470.296814 
	C96.216545,471.889679 94.036377,476.336426 95.045349,484.327850 
	C106.077477,485.778809 111.716812,479.989258 109.476494,469.033752 
	C107.235344,469.400543 104.976242,469.770294 101.924568,470.296814 
M99.051781,441.483307 
	C98.619652,443.371948 98.187515,445.260590 97.754524,447.153015 
	C108.940735,449.543793 113.877876,445.450806 114.267426,433.971802 
	C106.415024,431.541229 101.643234,433.697937 99.051781,441.483307 
M99.164482,147.617523 
	C103.123581,148.257019 107.082680,148.896530 111.272430,149.573288 
	C109.817818,136.046494 105.586128,132.572021 93.882065,135.230988 
	C95.447876,139.279648 96.977211,143.233994 99.164482,147.617523 
M128.038239,103.896919 
	C128.165039,114.437157 130.988953,117.109192 142.661209,117.215210 
	C142.358917,113.635094 142.399963,110.020683 141.671188,106.568787 
	C140.834061,102.603569 131.329132,100.323341 128.038239,103.896919 
M119.138123,410.041809 
	C121.140442,406.200226 123.142761,402.358612 125.214943,398.382996 
	C114.033295,394.924561 108.118988,399.171387 107.092621,410.980011 
	C110.927803,410.799652 114.681877,410.623138 119.138123,410.041809 
M25.573853,286.298706 
	C21.936117,288.438934 18.298382,290.579163 14.459208,292.837891 
	C24.388485,301.998230 31.199041,301.782593 36.571636,292.217651 
	C33.153221,290.263763 29.723356,288.303345 25.573853,286.298706 
M393.338715,116.988739 
	C388.782257,121.307594 391.778687,126.319160 391.278717,131.232391 
	C403.511108,128.811218 407.049744,123.053314 402.561981,113.138000 
	C399.745178,114.294891 396.891510,115.466911 393.338715,116.988739 
M117.536484,173.845490 
	C112.950462,172.917282 108.364449,171.989075 103.250465,170.954025 
	C106.271194,184.154800 110.326767,187.042816 121.182846,184.316513 
	C120.080582,181.038101 118.989952,177.794266 117.536484,173.845490 
M92.774178,338.299011 
	C93.282463,337.643250 93.776764,336.976044 94.301308,336.333557 
	C97.763275,332.093109 97.607338,331.541840 92.394470,329.668335 
	C85.892105,327.331360 80.007347,330.215332 76.781219,337.554993 
	C79.548668,338.641693 82.352196,339.625244 85.054527,340.834839 
	C88.095467,342.196014 90.509155,341.744476 92.774178,338.299011 
M165.932190,338.458221 
	C164.100739,340.116211 162.269287,341.774170 159.534576,344.249878 
	C166.593552,344.249878 172.015762,344.249878 178.250885,344.249878 
	C176.440216,339.798065 174.980637,336.209412 173.207870,331.850769 
	C170.530746,334.276459 168.491318,336.124359 165.932190,338.458221 
M334.481567,169.187332 
	C331.651489,172.547089 328.821411,175.906845 325.394897,179.974655 
	C329.723572,181.750748 333.255280,183.199844 337.439392,184.916626 
	C337.439392,178.439224 337.439392,172.880600 337.439392,166.618958 
	C336.172852,167.673187 335.553192,168.188965 334.481567,169.187332 
M166.561447,246.946808 
	C168.641342,248.908112 170.721237,250.869431 173.475769,253.466904 
	C175.306793,248.968399 176.686066,245.579803 178.397263,241.375687 
	C171.980606,240.857285 166.726974,240.432846 161.473343,240.008392 
	C160.934860,240.814362 160.396378,241.620346 159.857910,242.426315 
	C161.926910,243.768585 163.995926,245.110855 166.561447,246.946808 
M233.911301,179.488754 
	C234.155228,181.168091 234.399139,182.847427 234.746613,185.239700 
	C238.870804,183.487915 242.222458,182.064270 247.172928,179.961517 
	C242.443222,175.056030 238.679825,171.152756 234.916428,167.249481 
	C234.275742,167.672089 233.635056,168.094711 232.994370,168.517334 
	C233.285812,171.888184 233.577240,175.259048 233.911301,179.488754 
z"/>
<path fill="#F3D25A" opacity="1.000000" stroke="none" 
	d="
M281.846375,334.835175 
	C275.338226,332.779114 269.037323,331.176147 263.235016,328.494415 
	C260.305206,327.140350 258.630035,326.863800 256.405884,329.159241 
	C255.184113,330.420166 253.463943,331.198181 251.968491,332.193939 
	C251.628311,331.716064 251.288132,331.238220 250.947952,330.760345 
	C253.213242,328.948975 255.478531,327.137573 257.995728,325.124756 
	C250.353058,317.527100 245.913422,309.545319 244.396378,299.979614 
	C244.225845,298.904388 242.387299,297.855194 241.105652,297.261810 
	C239.825653,296.669189 238.266434,296.695068 236.848343,296.368469 
	C236.639633,296.320374 236.534393,295.822968 235.942108,294.703094 
	C238.692535,294.412140 241.109604,294.156464 243.903458,293.860931 
	C244.517227,282.892700 248.398666,273.061829 256.386658,265.031555 
	C255.295532,263.175781 254.315628,261.509155 253.335724,259.842560 
	C253.725922,259.479248 254.116119,259.115906 254.506302,258.752563 
	C255.934937,259.816437 257.363556,260.880310 259.250885,262.285736 
	C268.023468,255.958649 278.018951,252.514969 289.529846,253.855453 
	C290.047882,251.261948 290.542023,248.788223 291.036133,246.314484 
	C291.625488,246.294571 292.214874,246.274658 292.804230,246.254761 
	C293.005341,248.869186 293.206482,251.483627 293.407196,254.093124 
	C307.482025,259.526794 307.482025,259.526794 318.330933,270.295776 
	C321.380005,267.872742 324.474915,265.413269 327.569824,262.953796 
	C328.070984,263.586884 328.572174,264.219971 329.073334,264.853088 
	C326.048615,267.695831 323.023865,270.538574 320.063904,273.320404 
	C321.129364,277.634552 326.198669,281.512329 320.691772,285.954712 
	C312.882629,283.706970 311.070404,284.287170 307.236542,290.578918 
	C305.357300,283.362183 301.811890,277.524445 295.140930,274.093292 
	C286.190857,269.489868 275.465942,271.250092 268.461945,278.405792 
	C261.465088,285.554230 260.069550,296.234253 264.967743,305.146820 
	C269.784546,313.911285 279.558868,318.415283 289.516022,316.086792 
	C292.332581,315.428162 294.101990,315.818420 295.890411,318.110046 
	C298.530304,321.492798 301.509674,324.610565 305.014557,328.604797 
	C301.257660,328.421600 298.403198,328.429321 295.585388,328.111694 
	C290.984497,327.592987 287.425690,328.699768 285.341888,333.272797 
	C284.967834,334.093689 283.319672,334.333984 281.846375,334.835175 
z"/>
<path fill="#F3D35A" opacity="1.000000" stroke="none" 
	d="
M317.913879,302.123718 
	C315.813446,299.722961 313.421356,297.840668 312.264313,295.378082 
	C311.405792,293.550873 312.150970,290.970154 312.181793,288.725098 
	C314.410217,288.970551 317.279907,288.431763 318.735565,289.622162 
	C321.915771,292.222839 324.330780,295.745575 327.164703,298.792755 
	C327.892334,299.575165 329.015320,299.989960 329.956665,300.573639 
	C330.334717,300.167786 330.712769,299.761963 331.090820,299.356140 
	C329.319977,297.158539 327.614838,294.903687 325.760956,292.778534 
	C323.657562,290.367340 322.638794,287.783020 325.250885,285.319702 
	C328.029480,282.699341 330.430298,284.364655 332.487915,286.689972 
	C338.777466,293.797668 345.116608,300.863220 351.288330,308.071991 
	C352.400848,309.371429 352.950500,311.225464 353.517487,312.905334 
	C355.094879,317.578979 356.544678,322.295654 358.425293,328.187073 
	C351.706329,334.137573 343.645782,341.276215 335.008820,348.925354 
	C329.849152,338.947205 320.316071,342.529480 312.361267,341.288330 
	C306.796692,340.420135 301.084076,340.478241 295.434235,340.187622 
	C292.027008,340.012329 287.963196,340.056885 288.214722,335.430969 
	C288.476959,330.607727 292.586670,330.867798 296.224762,331.144043 
	C300.654968,331.480469 305.090485,331.746857 310.968872,332.140228 
	C309.340424,329.637665 308.594666,328.131683 307.526154,326.907349 
	C299.971313,318.250702 292.349274,309.652740 284.751648,301.033417 
	C283.871094,300.034454 282.976288,299.045441 282.144531,298.006622 
	C280.223083,295.606842 279.613281,292.691040 282.477051,291.166779 
	C284.028748,290.340820 287.550385,290.937531 288.811066,292.230530 
	C294.848083,298.422333 300.432983,305.056610 306.139954,311.567505 
	C307.816376,313.480042 309.366180,315.503571 310.974030,317.476257 
	C311.588257,317.010101 312.202515,316.543945 312.816742,316.077789 
	C312.407745,315.112701 312.203339,313.973450 311.555206,313.211945 
	C308.318848,309.409790 304.954620,305.716797 301.658386,301.965240 
	C299.599335,299.621765 298.423492,296.996429 301.145050,294.517700 
	C303.907837,292.001404 306.311340,293.495544 308.398590,295.864380 
	C311.480560,299.362152 314.567657,302.856354 317.714691,306.295258 
	C318.606812,307.270142 319.714844,308.047455 320.723877,308.915375 
	C321.211243,308.497284 321.698608,308.079193 322.185974,307.661102 
	C320.841400,305.905121 319.496826,304.149109 317.913879,302.123718 
z"/>
<path fill="#F78D4C" opacity="1.000000" stroke="none" 
	d="
M349.724915,214.245911 
	C309.006927,181.617844 250.239624,185.519440 214.257004,221.835419 
	C175.165466,261.289185 174.233398,332.685669 222.206558,371.314880 
	C221.115067,372.516479 220.034958,373.705536 218.971558,374.876190 
	C193.572220,356.807617 175.470474,319.412354 180.200485,279.869629 
	C185.495148,235.606628 218.748611,198.953979 261.517517,188.836166 
	C304.517303,178.663757 346.686340,196.961823 368.294250,224.861679 
	C367.031555,225.800537 365.705872,226.786209 364.252991,227.866470 
	C359.625488,223.517014 354.813751,218.994415 349.724915,214.245911 
z"/>
<path fill="#F2D25A" opacity="1.000000" stroke="none" 
	d="
M265.166077,293.199036 
	C267.024384,275.855194 285.725220,269.694275 296.784180,278.904297 
	C299.927185,281.521820 301.972260,285.457733 304.342926,288.556549 
	C301.018066,291.227325 298.558533,293.203003 295.893311,295.343903 
	C294.419556,293.699677 292.728668,291.657166 290.873199,289.777130 
	C287.483459,286.342438 283.380890,285.997833 280.204285,288.749176 
	C276.894073,291.616241 276.602051,296.059692 279.748413,299.847198 
	C283.229614,304.037781 286.923737,308.051453 290.604156,312.231934 
	C278.132751,317.307037 265.976990,308.223114 265.166077,293.199036 
z"/>
<path fill="#F3D25A" opacity="1.000000" stroke="none" 
	d="
M336.471802,351.504761 
	C347.226807,342.078552 357.717346,332.890686 368.634949,323.328766 
	C371.804871,326.843140 374.859833,330.230103 378.328735,334.075958 
	C365.539764,345.387512 352.924896,356.545105 339.864044,368.097137 
	C336.702454,364.450836 333.714081,361.004303 330.308899,357.077057 
	C332.370636,355.212616 334.288971,353.477875 336.471802,351.504761 
z"/>
<path fill="#E8C857" opacity="1.000000" stroke="none" 
	d="
M167.501129,278.944702 
	C167.796875,279.956818 167.670853,281.115692 167.392090,282.589783 
	C155.504410,281.645111 143.779022,280.286438 132.032318,279.147644 
	C112.803070,277.283386 93.524094,275.867279 74.342369,273.613129 
	C67.731483,272.836243 63.212791,276.459442 58.174248,278.941589 
	C54.300884,280.849792 51.702763,280.819031 48.579834,277.819824 
	C45.239384,274.611664 41.403427,271.919403 37.193367,268.526154 
	C43.106773,265.304962 48.523060,262.272949 54.041245,259.439423 
	C54.840576,259.028961 56.632534,259.150970 57.115940,259.732544 
	C66.988594,271.609528 80.876625,271.382812 94.442146,272.550781 
	C117.173805,274.507996 139.875168,276.816559 162.591339,278.955414 
	C164.078415,279.095459 165.582932,279.050385 167.501129,278.944702 
M49.715649,265.141022 
	C47.814877,266.325012 45.914104,267.508972 43.999092,268.701813 
	C50.507126,278.287323 57.716915,278.781189 65.234268,270.680908 
	C58.111370,262.916351 56.141376,262.135345 49.715649,265.141022 
z"/>
<path fill="#E8C857" opacity="1.000000" stroke="none" 
	d="
M275.983643,173.537430 
	C275.090302,174.267349 274.170532,174.559555 272.880737,174.844162 
	C271.905334,166.566635 271.440430,158.283539 270.667816,150.029236 
	C268.496948,126.835144 266.466003,103.621078 263.705200,80.495422 
	C263.209412,76.342171 259.881653,72.284424 257.186310,68.688591 
	C252.113007,61.920284 251.906403,62.072441 255.917023,54.715839 
	C257.815613,51.233276 259.723999,47.756020 261.994019,43.607281 
	C266.417328,48.667801 270.547119,53.312080 274.544250,58.067841 
	C275.040924,58.658802 274.976562,59.853249 274.902985,60.745872 
	C274.852692,61.356186 274.425476,62.002419 274.012390,62.505928 
	C266.244446,71.974457 266.802063,82.772614 268.088196,94.119934 
	C271.067566,120.406136 273.376465,146.768326 275.983643,173.537430 
M259.205048,66.262497 
	C260.920685,68.155266 262.636322,70.048027 264.384735,71.976952 
	C272.945679,62.394558 272.099304,55.146881 262.053284,50.014992 
	C260.748230,52.283772 259.565460,54.660923 258.085999,56.836292 
	C255.898697,60.052437 255.827377,62.946770 259.205048,66.262497 
z"/>
<path fill="#E8C857" opacity="1.000000" stroke="none" 
	d="
M300.283691,174.450104 
	C299.472809,174.663147 298.515686,174.476562 297.249878,174.086044 
	C299.114685,150.836853 301.278229,127.790634 303.467041,104.746826 
	C304.238678,96.623062 304.882629,88.480392 305.940460,80.392860 
	C306.710632,74.504662 303.446930,70.084000 300.828827,65.639656 
	C297.917419,60.697403 298.083405,57.099224 302.419006,53.245171 
	C305.380432,50.612671 307.740479,47.303635 310.996887,43.579441 
	C314.211334,49.548313 317.294556,55.119637 320.166199,60.797974 
	C320.530914,61.519142 320.143372,63.261837 319.505219,63.753227 
	C309.302216,71.609756 308.368927,82.848602 307.407867,94.470116 
	C305.294403,120.026939 302.568634,145.533096 300.112305,171.061813 
	C300.017426,172.048080 300.124542,173.053818 300.283691,174.450104 
M302.845245,62.566673 
	C304.389526,65.587723 305.933838,68.608772 307.522552,71.716759 
	C317.772797,64.295517 318.280945,58.401817 309.643402,49.736473 
	C307.045013,53.723194 301.516449,55.724922 302.845245,62.566673 
z"/>
<path fill="#E8C857" opacity="1.000000" stroke="none" 
	d="
M166.976868,303.303955 
	C167.577438,304.233673 167.776718,305.337280 167.964325,306.783020 
	C158.517426,307.799194 149.067825,308.316528 139.649994,309.180267 
	C120.432381,310.942841 101.262566,313.433136 82.010750,314.524536 
	C73.046791,315.032684 65.975525,317.999237 59.906212,324.045776 
	C57.184540,326.757233 54.810703,326.727539 51.637661,324.868896 
	C47.208057,322.274200 42.504482,320.147247 37.167114,317.439087 
	C42.294430,313.333252 46.978355,309.486664 51.804214,305.827240 
	C52.483654,305.312012 54.179188,305.263916 54.860600,305.754639 
	C65.728790,313.581848 77.719025,312.498444 90.099487,311.093414 
	C115.551796,308.204987 141.079117,305.977448 166.976868,303.303955 
M57.395031,321.979340 
	C60.140816,319.747894 62.886600,317.516418 65.763161,315.178680 
	C55.542683,307.336304 50.240940,307.893158 43.423370,317.850037 
	C48.042225,319.405945 52.412319,320.878082 57.395031,321.979340 
z"/>
<path fill="#EACA58" opacity="1.000000" stroke="none" 
	d="
M263.509521,175.521271 
	C262.624420,176.279541 261.590424,176.631744 260.274109,176.990540 
	C258.276642,167.724380 256.682312,158.427246 254.814987,149.185257 
	C252.608490,138.264496 249.839890,127.447426 247.955597,116.475388 
	C246.921936,110.456551 244.035233,106.289078 239.472229,102.526726 
	C232.089828,96.439690 232.237656,96.239281 236.011002,87.635887 
	C237.605438,84.000488 239.266541,80.394318 241.174606,76.159485 
	C246.074722,80.845879 250.629379,85.102074 255.023331,89.518166 
	C255.640854,90.138794 255.550964,91.535973 255.629730,92.585617 
	C255.663086,93.030098 255.351242,93.547325 255.085815,93.960510 
	C248.745621,103.830215 249.707336,113.977348 252.526321,124.886131 
	C256.808197,141.455887 259.813232,158.355637 263.509521,175.521271 
M249.743454,99.147957 
	C253.038437,91.086472 250.655884,85.820877 242.319107,82.739708 
	C234.522125,92.989098 235.774887,98.791977 247.265350,104.144943 
	C247.991959,102.709328 248.725601,101.259819 249.743454,99.147957 
z"/>
<path fill="#E9C957" opacity="1.000000" stroke="none" 
	d="
M312.716034,176.640778 
	C311.812042,176.803833 310.691986,176.584595 309.283508,176.177063 
	C313.865417,153.903687 319.013214,131.872604 323.334747,109.680618 
	C324.061035,105.951111 321.691132,101.302422 319.903076,97.474983 
	C317.339783,91.988312 317.758179,87.964462 323.029358,84.369080 
	C326.124756,82.257744 328.587799,79.219391 331.727509,76.223816 
	C334.556030,82.803391 337.304840,88.841164 339.661896,95.028183 
	C340.059021,96.070580 339.174713,98.465431 338.188171,99.036987 
	C328.339478,104.742867 325.149536,113.892952 323.276489,124.482887 
	C320.207611,141.833969 316.143982,159.009125 312.716034,176.640778 
M334.715759,90.758911 
	C333.510254,88.061714 332.304718,85.364517 331.118011,82.709366 
	C320.988403,86.567551 319.538788,93.895187 326.740448,104.529472 
	C328.685730,103.011719 330.522369,101.370079 332.560211,100.035774 
	C335.940491,97.822479 337.562958,95.269417 334.715759,90.758911 
z"/>
<path fill="#EBCA58" opacity="1.000000" stroke="none" 
	d="
M169.553131,266.915894 
	C169.738266,267.725769 169.530792,268.596710 169.131958,269.747803 
	C147.642242,265.436798 126.354164,260.796570 105.028519,256.335968 
	C103.052010,255.922546 100.778625,256.413239 98.748032,256.911652 
	C96.504814,257.462250 94.391518,258.530090 92.206047,259.330078 
	C82.045494,263.049225 85.488319,263.945312 78.319160,256.152069 
	C75.744186,253.352966 73.279228,250.452637 70.331596,247.107758 
	C76.538269,244.790192 82.228020,242.535004 88.030991,240.623550 
	C89.033218,240.293427 91.076530,241.037704 91.690468,241.934799 
	C98.511757,251.902206 108.841858,254.452942 119.887749,256.483002 
	C136.397247,259.517181 152.744339,263.434998 169.553131,266.915894 
M81.633614,245.984680 
	C79.915840,246.807007 78.198059,247.629318 76.448463,248.466873 
	C82.579338,259.228546 90.235901,260.576263 97.339859,252.620178 
	C91.359169,243.941330 89.761658,243.208191 81.633614,245.984680 
z"/>
<path fill="#EECE59" opacity="1.000000" stroke="none" 
	d="
M229.766068,237.805771 
	C231.381912,234.059433 234.067245,231.766663 237.649170,232.723694 
	C240.010574,233.354630 243.071838,235.494751 243.651932,237.566193 
	C244.303040,239.891190 243.284531,243.692932 241.555481,245.376083 
	C239.995850,246.894333 236.232681,247.307877 233.911346,246.620697 
	C230.169296,245.512970 228.923965,242.078247 229.766068,237.805771 
z"/>
<path fill="#F0D059" opacity="1.000000" stroke="none" 
	d="
M233.388153,353.451538 
	C229.927505,356.500641 226.638718,356.804413 223.287750,354.013184 
	C220.344452,351.561615 219.259430,348.058472 221.419083,345.200897 
	C223.021454,343.080750 226.442719,341.194611 229.045807,341.204956 
	C234.756363,341.227631 236.817703,347.221191 233.388153,353.451538 
z"/>
<path fill="#F1D159" opacity="1.000000" stroke="none" 
	d="
M343.020691,236.871216 
	C347.312408,233.864288 350.938965,234.547256 353.769043,238.259949 
	C356.179291,241.421921 355.880646,244.842590 353.129639,247.738220 
	C350.330231,250.684814 346.966858,250.812744 343.631836,248.723480 
	C339.709381,246.266205 339.437134,241.846039 343.020691,236.871216 
z"/>
<path fill="#EACA58" opacity="1.000000" stroke="none" 
	d="
M210.728638,289.816467 
	C214.621216,289.165283 216.829910,290.948364 216.339676,294.253998 
	C216.107468,295.819763 213.602493,297.463837 211.776581,298.185974 
	C210.977478,298.502045 208.195816,296.535950 208.241882,295.714233 
	C208.352280,293.744904 209.604446,291.839539 210.728638,289.816467 
z"/>
<path fill="#EECE59" opacity="1.000000" stroke="none" 
	d="
M295.299316,226.128159 
	C291.231720,226.918137 288.771423,225.226639 289.361755,221.621841 
	C289.610291,220.104187 292.579773,218.742157 294.568726,217.968124 
	C295.202789,217.721375 297.592712,219.639282 297.554504,220.494049 
	C297.471313,222.353958 296.342804,224.167130 295.299316,226.128159 
z"/>
<path fill="#FF934D" opacity="1.000000" stroke="none" 
	d="
M141.841949,294.932556 
	C130.617355,296.806122 119.837440,298.865814 108.973679,300.282532 
	C105.503937,300.735046 101.774963,299.670502 98.229027,298.972687 
	C90.144150,297.381622 82.099129,295.587982 74.015831,293.056854 
	C86.474083,290.634277 98.400215,285.180908 111.236565,286.565216 
	C123.716476,287.911102 136.062454,290.498810 148.613998,293.564331 
	C146.494034,293.999390 144.374084,294.434448 141.841949,294.932556 
z"/>
<path fill="#FF934D" opacity="1.000000" stroke="none" 
	d="
M281.058228,102.065910 
	C282.648041,94.348854 284.175537,87.050789 285.703033,79.752731 
	C286.112976,79.722610 286.522888,79.692497 286.932831,79.662376 
	C288.622162,87.943497 289.774567,96.382019 292.143921,104.463776 
	C294.789001,113.485901 291.905029,121.938446 290.863647,130.573563 
	C289.832001,139.127975 288.139191,147.602646 285.921509,156.207352 
	C284.714661,149.120117 283.485321,142.036621 282.308868,134.944336 
	C281.520050,130.188919 280.327393,125.435860 280.179382,120.654999 
	C279.992340,114.612518 280.683563,108.542847 281.058228,102.065910 
z"/>
<path fill="#FF934D" opacity="1.000000" stroke="none" 
	d="
M437.014343,142.010529 
	C429.482391,154.320023 423.983246,168.098572 411.246033,176.587036 
	C402.305878,182.544998 393.571625,188.811874 384.374878,194.977539 
	C384.004395,195.014313 383.953247,194.964951 383.953247,194.964951 
	C397.103851,173.095581 412.590393,153.543137 436.661011,142.084167 
	C437.001007,142.000610 437.014343,142.010529 437.014343,142.010529 
z"/>
<path fill="#FF934D" opacity="1.000000" stroke="none" 
	d="
M135.896210,442.916412 
	C141.708267,433.839050 147.012619,424.372620 153.545181,415.847382 
	C156.843231,411.543304 162.323975,408.886169 166.891434,405.586273 
	C174.019623,400.436218 181.210434,395.372833 188.687164,390.136230 
	C188.999588,389.999756 188.989914,389.992706 188.989899,389.992706 
	C184.041672,397.387787 178.659363,404.533508 174.237442,412.230927 
	C165.583267,427.295624 150.768509,434.555359 136.410675,443.011902 
	C136.010742,443.029327 135.896210,442.916412 135.896210,442.916412 
z"/>
<path fill="#FF934D" opacity="1.000000" stroke="none" 
	d="
M137.087250,142.892120 
	C160.375641,153.730331 175.445908,172.741150 188.060699,194.574921 
	C188.038544,194.978058 187.939804,195.076294 187.939804,195.076294 
	C176.678772,187.123169 164.318893,180.309052 154.512299,170.848312 
	C146.975067,163.576889 142.652847,152.972916 136.934601,143.432556 
	C136.968307,143.014160 137.087250,142.892120 137.087250,142.892120 
z"/>
<path fill="#FF924D" opacity="1.000000" stroke="none" 
	d="
M168.625565,18.854763 
	C174.137161,22.485262 179.373627,26.002329 184.462006,29.722004 
	C185.546921,30.515091 186.860870,32.112545 186.762802,33.224155 
	C186.143524,40.242714 185.156082,47.228794 184.125870,55.553593 
	C177.224167,50.725750 171.437103,46.700016 165.690277,42.617641 
	C165.198563,42.268341 164.606033,41.485550 164.681061,41.000084 
	C165.825607,33.595196 167.073654,26.206306 168.625565,18.854763 
z"/>
<path fill="#FF934D" opacity="1.000000" stroke="none" 
	d="
M13.448877,402.622803 
	C11.180050,402.091431 9.315897,401.654602 6.183410,400.920563 
	C11.346139,394.492065 15.827553,388.855652 20.407721,383.300629 
	C20.840328,382.775940 21.950745,382.438477 22.649395,382.562225 
	C29.605772,383.794373 36.541721,385.141815 45.046890,386.752808 
	C39.597023,393.348297 35.196335,399.031769 30.319818,404.272522 
	C29.349274,405.315582 26.518246,404.972504 24.614492,404.728180 
	C21.001005,404.264404 17.437702,403.409698 13.448877,402.622803 
z"/>
<path fill="#FF924D" opacity="1.000000" stroke="none" 
	d="
M35.047035,172.368011 
	C39.815563,178.476166 44.213379,184.437714 49.430199,191.509491 
	C41.029377,192.413666 33.892414,193.250839 26.736507,193.868729 
	C25.791500,193.950348 24.407085,193.166199 23.808470,192.353897 
	C19.799454,186.913727 15.948226,181.357269 11.006433,174.368652 
	C19.817444,173.569351 27.246885,172.895370 35.047035,172.368011 
z"/>
<path fill="#FF924D" opacity="1.000000" stroke="none" 
	d="
M375.998505,29.486256 
	C381.576080,23.869431 387.128754,18.659969 392.681458,13.450507 
	C393.263245,13.754874 393.845062,14.059242 394.426849,14.363609 
	C395.753784,21.465694 397.117035,28.561510 398.346588,35.680416 
	C398.458954,36.330978 397.904663,37.362164 397.339203,37.823048 
	C391.969360,42.199615 386.530151,46.491016 379.783173,51.864315 
	C378.364899,43.684837 377.169281,36.789227 375.998505,29.486256 
z"/>
<path fill="#FF934D" opacity="1.000000" stroke="none" 
	d="
M178.983322,119.116127 
	C178.851273,121.804489 178.718826,124.049667 178.587952,126.268265 
	C166.251129,125.970901 162.608368,120.760811 165.905258,108.930893 
	C173.650803,108.896461 178.759933,112.702446 178.983322,119.116127 
z"/>
<path fill="#FF934D" opacity="1.000000" stroke="none" 
	d="
M291.415344,27.603846 
	C293.959686,30.521740 293.990204,33.090355 291.763672,35.893841 
	C289.932526,38.199509 288.399017,40.741600 286.735779,43.175735 
	C277.156311,36.606979 277.013947,30.643133 286.380127,20.644777 
	C288.030151,22.919632 289.622162,25.114517 291.415344,27.603846 
z"/>
<path fill="#FF934D" opacity="1.000000" stroke="none" 
	d="
M433.317383,120.167847 
	C431.200256,120.731483 429.461517,121.201782 427.692261,121.680344 
	C425.777557,108.288887 427.504974,106.209908 440.881348,104.606003 
	C442.777863,114.831474 441.253204,118.113609 433.317383,120.167847 
z"/>
<path fill="#FF934D" opacity="1.000000" stroke="none" 
	d="
M91.624969,104.417252 
	C91.209702,101.957092 90.887177,99.887497 90.558182,97.776405 
	C102.702972,96.988327 105.328613,99.538971 106.431221,112.599838 
	C98.257278,114.074532 93.016441,111.299072 91.624969,104.417252 
z"/>
<path fill="#FF934D" opacity="1.000000" stroke="none" 
	d="
M467.396179,116.160210 
	C463.727844,117.172813 462.824493,115.722595 463.129242,112.641174 
	C464.056366,103.266769 467.155548,100.841240 478.182251,101.062843 
	C479.280884,111.162209 477.114960,114.293816 467.396179,116.160210 
z"/>
<path fill="#FF934D" opacity="1.000000" stroke="none" 
	d="
M102.320854,470.218414 
	C104.976242,469.770294 107.235344,469.400543 109.476494,469.033752 
	C111.716812,479.989258 106.077477,485.778809 95.045349,484.327850 
	C94.036377,476.336426 96.216545,471.889679 102.320854,470.218414 
z"/>
<path fill="#FF934D" opacity="1.000000" stroke="none" 
	d="
M99.173157,441.111206 
	C101.643234,433.697937 106.415024,431.541229 114.267426,433.971802 
	C113.877876,445.450806 108.940735,449.543793 97.754524,447.153015 
	C98.187515,445.260590 98.619652,443.371948 99.173157,441.111206 
z"/>
<path fill="#FF934D" opacity="1.000000" stroke="none" 
	d="
M98.835510,147.402939 
	C96.977211,143.233994 95.447876,139.279648 93.882065,135.230988 
	C105.586128,132.572021 109.817818,136.046494 111.272430,149.573288 
	C107.082680,148.896530 103.123581,148.257019 98.835510,147.402939 
z"/>
<path fill="#FF934D" opacity="1.000000" stroke="none" 
	d="
M128.093933,103.492065 
	C131.329132,100.323341 140.834061,102.603569 141.671188,106.568787 
	C142.399963,110.020683 142.358917,113.635094 142.661209,117.215210 
	C130.988953,117.109192 128.165039,114.437157 128.093933,103.492065 
z"/>
<path fill="#FF954E" opacity="1.000000" stroke="none" 
	d="
M118.787033,410.244202 
	C114.681877,410.623138 110.927803,410.799652 107.092621,410.980011 
	C108.118988,399.171387 114.033295,394.924561 125.214943,398.382996 
	C123.142761,402.358612 121.140442,406.200226 118.787033,410.244202 
z"/>
<path fill="#FF934D" opacity="1.000000" stroke="none" 
	d="
M25.933674,286.320801 
	C29.723356,288.303345 33.153221,290.263763 36.571636,292.217651 
	C31.199041,301.782593 24.388485,301.998230 14.459208,292.837891 
	C18.298382,290.579163 21.936117,288.438934 25.933674,286.320801 
z"/>
<path fill="#FF924D" opacity="1.000000" stroke="none" 
	d="
M393.688293,116.813835 
	C396.891510,115.466911 399.745178,114.294891 402.561981,113.138000 
	C407.049744,123.053314 403.511108,128.811218 391.278717,131.232391 
	C391.778687,126.319160 388.782257,121.307594 393.688293,116.813835 
z"/>
<path fill="#FF944E" opacity="1.000000" stroke="none" 
	d="
M117.717896,174.197968 
	C118.989952,177.794266 120.080582,181.038101 121.182846,184.316513 
	C110.326767,187.042816 106.271194,184.154800 103.250465,170.954025 
	C108.364449,171.989075 112.950462,172.917282 117.717896,174.197968 
z"/>
<path fill="#FF934D" opacity="1.000000" stroke="none" 
	d="
M92.558716,338.586609 
	C90.509155,341.744476 88.095467,342.196014 85.054527,340.834839 
	C82.352196,339.625244 79.548668,338.641693 76.781219,337.554993 
	C80.007347,330.215332 85.892105,327.331360 92.394470,329.668335 
	C97.607338,331.541840 97.763275,332.093109 94.301308,336.333557 
	C93.776764,336.976044 93.282463,337.643250 92.558716,338.586609 
z"/>
<path fill="#FE974E" opacity="1.000000" stroke="none" 
	d="
M166.192047,338.215240 
	C168.491318,336.124359 170.530746,334.276459 173.207870,331.850769 
	C174.980637,336.209412 176.440216,339.798065 178.250885,344.249878 
	C172.015762,344.249878 166.593552,344.249878 159.534576,344.249878 
	C162.269287,341.774170 164.100739,340.116211 166.192047,338.215240 
z"/>
<path fill="#FF954E" opacity="1.000000" stroke="none" 
	d="
M334.707581,168.946045 
	C335.553192,168.188965 336.172852,167.673187 337.439392,166.618958 
	C337.439392,172.880600 337.439392,178.439224 337.439392,184.916626 
	C333.255280,183.199844 329.723572,181.750748 325.394897,179.974655 
	C328.821411,175.906845 331.651489,172.547089 334.707581,168.946045 
z"/>
<path fill="#FF954E" opacity="1.000000" stroke="none" 
	d="
M166.313187,246.699982 
	C163.995926,245.110855 161.926910,243.768585 159.857910,242.426315 
	C160.396378,241.620346 160.934860,240.814362 161.473343,240.008392 
	C166.726974,240.432846 171.980606,240.857285 178.397263,241.375687 
	C176.686066,245.579803 175.306793,248.968399 173.475769,253.466904 
	C170.721237,250.869431 168.641342,248.908112 166.313187,246.699982 
z"/>
<path fill="#FF954E" opacity="1.000000" stroke="none" 
	d="
M233.889984,179.059326 
	C233.577240,175.259048 233.285812,171.888184 232.994370,168.517334 
	C233.635056,168.094711 234.275742,167.672089 234.916428,167.249481 
	C238.679825,171.152756 242.443222,175.056030 247.172928,179.961517 
	C242.222458,182.064270 238.870804,183.487915 234.746613,185.239700 
	C234.399139,182.847427 234.155228,181.168091 233.889984,179.059326 
z"/>
<path fill="#FF934D" opacity="1.000000" stroke="none" 
	d="
M188.089935,194.931046 
	C188.141327,194.884033 188.313202,195.146896 188.313202,195.146896 
	C188.313202,195.146896 188.054031,195.194321 187.996918,195.135315 
	C187.939804,195.076294 188.038544,194.978058 188.089935,194.931046 
z"/>
<path fill="#FF934D" opacity="1.000000" stroke="none" 
	d="
M384.028320,195.040588 
	C384.052216,195.066879 383.860626,195.266556 383.860626,195.266556 
	C383.860626,195.266556 383.833191,195.050797 383.893219,195.007874 
	C383.953247,194.964951 384.004395,195.014313 384.028320,195.040588 
z"/>
<path fill="#FF934D" opacity="1.000000" stroke="none" 
	d="
M189.002533,390.003906 
	C189.005493,390.008087 189.097092,389.962128 189.043503,389.977417 
	C188.989914,389.992706 188.999588,389.999756 189.002533,390.003906 
z"/>
<path fill="#FF934D" opacity="1.000000" stroke="none" 
	d="
M136.008163,141.988525 
	C136.008163,141.988525 135.941437,141.911499 135.970886,141.955505 
	C136.000336,141.999496 136.008163,141.988525 136.008163,141.988525 
z"/>
<path fill="#FF934D" opacity="1.000000" stroke="none" 
	d="
M136.905945,143.072205 
	C136.583679,142.937790 136.370178,142.703094 136.105621,142.207367 
	C136.008163,141.988525 136.000336,141.999496 135.995483,142.002930 
	C136.279953,142.141556 136.540695,142.318787 136.930054,142.715073 
	C137.087250,142.892120 136.968307,143.014160 136.905945,143.072205 
z"/>
<path fill="#FF934D" opacity="1.000000" stroke="none" 
	d="
M136.065842,443.087891 
	C136.120941,443.146454 135.840973,443.308624 135.840973,443.308624 
	C135.840973,443.308624 135.781967,443.040283 135.839081,442.978333 
	C135.896210,442.916412 136.010742,443.029327 136.065842,443.087891 
z"/>
<path fill="#FF934D" opacity="1.000000" stroke="none" 
	d="
M436.996643,141.994781 
	C436.992310,141.988968 437.133789,141.964539 437.074066,141.987534 
	C437.014343,142.010529 437.001007,142.000610 436.996643,141.994781 
z"/>
<path fill="#FF934D" opacity="1.000000" stroke="none" 
	d="
M50.049694,264.967224 
	C56.141376,262.135345 58.111370,262.916351 65.234268,270.680908 
	C57.716915,278.781189 50.507126,278.287323 43.999092,268.701813 
	C45.914104,267.508972 47.814877,266.325012 50.049694,264.967224 
z"/>
<path fill="#FF934D" opacity="1.000000" stroke="none" 
	d="
M258.999329,65.969292 
	C255.827377,62.946770 255.898697,60.052437 258.085999,56.836292 
	C259.565460,54.660923 260.748230,52.283772 262.053284,50.014992 
	C272.099304,55.146881 272.945679,62.394558 264.384735,71.976952 
	C262.636322,70.048027 260.920685,68.155266 258.999329,65.969292 
z"/>
<path fill="#FF934D" opacity="1.000000" stroke="none" 
	d="
M302.698425,62.221550 
	C301.516449,55.724922 307.045013,53.723194 309.643402,49.736473 
	C318.280945,58.401817 317.772797,64.295517 307.522552,71.716759 
	C305.933838,68.608772 304.389526,65.587723 302.698425,62.221550 
z"/>
<path fill="#FF934D" opacity="1.000000" stroke="none" 
	d="
M57.088722,322.164764 
	C52.412319,320.878082 48.042225,319.405945 43.423370,317.850037 
	C50.240940,307.893158 55.542683,307.336304 65.763161,315.178680 
	C62.886600,317.516418 60.140816,319.747894 57.088722,322.164764 
z"/>
<path fill="#FF934D" opacity="1.000000" stroke="none" 
	d="
M249.601349,99.479126 
	C248.725601,101.259819 247.991959,102.709328 247.265350,104.144943 
	C235.774887,98.791977 234.522125,92.989098 242.319107,82.739708 
	C250.655884,85.820877 253.038437,91.086472 249.601349,99.479126 
z"/>
<path fill="#FF934D" opacity="1.000000" stroke="none" 
	d="
M334.845825,91.104408 
	C337.562958,95.269417 335.940491,97.822479 332.560211,100.035774 
	C330.522369,101.370079 328.685730,103.011719 326.740448,104.529472 
	C319.538788,93.895187 320.988403,86.567551 331.118011,82.709366 
	C332.304718,85.364517 333.510254,88.061714 334.845825,91.104408 
z"/>
<path fill="#FF934D" opacity="1.000000" stroke="none" 
	d="
M81.991760,245.862793 
	C89.761658,243.208191 91.359169,243.941330 97.339859,252.620178 
	C90.235901,260.576263 82.579338,259.228546 76.448463,248.466873 
	C78.198059,247.629318 79.915840,246.807007 81.991760,245.862793 
z"/>
</svg>